<svg width="15" height="15" shape-rendering="crispEdges" role="img" aria-label="1" class="dirimg l">
	<circle cx="7.5" cy="7.5" r="5.25" fill="var(--dir-fill,#383448)"/>
	<path fill="var(--dir-maru,#101018)" d="m8.8588 12.571a5.25 5.25 0 0 1-5.0711-1.3588 5.25 5.25 0 0 1-1.3588-5.0711l5.0711 1.3588z"/>
	<circle cx="7.5" cy="7.5" r="3.05" fill="var(--dir-fill,#383448)" stroke="var(--dir-maru,#101018)" stroke-width=".8"/>
	<path fill="#fff0e0" d="M6.2995 12.509c.0467-.0468.0346-.1074 0-.142L4.956 10.9175l2.0682-2.0683c.198-.198.2455-.391.1061-.5303-.1552-.1552-.6364 0-.6364 0l-2.4572.8662c-.1561.062-.2736.0969-.3359.159L.7487 12.2966c-.0357.0356-.0312.1456.0143.191.0458.046.1259.0533.2332.0564h5.1265c.068 0 .1488-.0088.1768-.035z"/>
</svg>