<svg width="15" height="15" shape-rendering="crispEdges" role="img" aria-label="2" class="dirimg">
	<circle cx="7.5" cy="7.5" r="5.25" fill="var(--dir-fill,#383448)"/>
	<path fill="var(--dir-maru,#101018)" d="m12.047 10.125a5.25 5.25 0 0 1-4.5466 2.625 5.25 5.25 0 0 1-4.5466-2.625l4.5466-2.625z"/>
	<circle cx="7.5" cy="7.5" r="3.05" fill="var(--dir-fill,#383448)" stroke="var(--dir-maru,#101018)" stroke-width=".8"/>
	<path fill="#fff0e0" d="M10 11.025c0-.0661-.051-.1-.1-.1H8V8c0-.28-.1029-.45-.3-.45-.2195 0-.45.45-.45.45l-1.125 2.35c-.0666.1542-.125.262-.125.35v4.175c0 .0503.0809.125.1453.125.0648 0 .1266-.0514.2047-.125l3.55-3.7c.0481-.0481.0987-.1117.1-.15z"/>
</svg>
