<svg width="15" height="15" shape-rendering="crispEdges" role="img" aria-label="214" class="dirimg l">
	<path d="M7 7.9v7a7 7 0 01-7-7z" fill="#fff0e0"/>
	<circle cx="7.5" cy="7.5" r="5.25" fill="var(--dir-fill,#383448)"/>
	<path fill="var(--dir-maru,#101018)" d="m10.125 12.047a5.25 5.25 0 0 1-6.3373-0.83432 5.25 5.25 0 0 1-0.83432-6.3373l4.5466 2.625z"/>
	<circle cx="7.5" cy="7.5" r="3.05" fill="var(--dir-fill,#383448)" stroke="var(--dir-maru,#101018)" stroke-width=".8"/>
	<path fill="#fff0e0" d="M4.075 7.8996c0 .066-.0514.1004-.1004.1004l-1.9747-.0002V8.25L0 8.2498V4.125C0 4.0746.081 4 .1455 4c.0648 0 .1266.0514.2047.125l3.6247 3.6248c.048.0481.099.1115.1002.1498zM7.2508 8.501c.2195 0 .4492.4458.4492.4458l.75 3.2252v2.2328c0 .2806-.2568.4962-.5.4962h-1V8.9468c0-.2779.1037-.4458.3008-.4458z"/>
</svg>