<svg width="15" height="15" shape-rendering="crispEdges" role="img" aria-label="236" class="dirimg r">
	<path d="M8 7.9v7a7 7 0 007-7z" fill="#fff0e0"/>
	<circle cx="7.5" cy="7.5" r="5.25" fill="var(--dir-fill,#383448)"/>
	<path fill="var(--dir-maru,#101018)" d="m12.047 4.875a5.25 5.25 0 0 1-0.83432 6.3373 5.25 5.25 0 0 1-6.3373 0.83432l2.625-4.5466z"/>
	<circle cx="7.5" cy="7.5" r="3.05" fill="var(--dir-fill,#383448)" stroke="var(--dir-maru,#101018)" stroke-width=".8"/>
	<path fill="#fff0e0" d="M10.925 7.8996c0 .066.0514.1004.1004.1004l1.9748-.0002V8.25l2-.0002L15 4.125c0-.0504-.081-.125-.1453-.125-.0648 0-.1266.0514-.2047.125l-3.6249 3.6248c-.048.0481-.099.1115-.1002.1498zM7.6992 8.451c-.2195 0-.4492.4492-.4492.4492l-.75 3.25v2.25c0 .2828.2568.5.5.5h1v-6c0-.28-.1037-.4492-.3008-.4492z"/>
</svg>