<svg width="15" height="15" shape-rendering="crispEdges" role="img" aria-label="3" class="dirimg r">
	<circle cx="7.5" cy="7.5" r="5.25" fill="var(--dir-fill,#383448)"/>
	<path fill="var(--dir-maru,#101018)" d="m12.571 6.1412a5.25 5.25 0 0 1-1.3588 5.0711 5.25 5.25 0 0 1-5.0711 1.3588l1.3588-5.0711z"/>
	<circle cx="7.5" cy="7.5" r="3.05" fill="var(--dir-fill,#383448)" stroke="var(--dir-maru,#101018)" stroke-width=".8"/>
	<path fill="#fff0e0" d="M12.659 8.8108c-.0468-.0467-.1074-.0346-.142 0l-1.4494 1.3435L8.9993 8.086c-.198-.198-.391-.2454-.5303-.106-.1552.1552 0 .6364 0 .6364l.8662 2.4572c.062.156.0969.2736.159.3358l2.9523 2.9522c.0356.0357.1456.0312.191-.0143.046-.0459.0533-.1259.0564-.2332V8.9876c0-.068-.0088-.1488-.035-.1768z"/>
</svg>