<svg width="15" height="15" shape-rendering="crispEdges" role="img" aria-label="4" class="dirimg l">
	<circle cx="7.5" cy="7.5" r="5.25" fill="var(--dir-fill,#383448)"/>
	<path fill="var(--dir-maru,#101018)" d="m6.1412 12.571a5.25 5.25 0 0 1-3.8912-5.0711 5.25 5.25 0 0 1 3.8912-5.0711l1.3588 5.0711z"/>
	<circle cx="7.5" cy="7.5" r="3.05" fill="var(--dir-fill,#383448)" stroke="var(--dir-maru,#101018)" stroke-width=".8"/>
	<path fill="#fff0e0" d="M3.975 10c.0661 0 .1-.051.1-.1V8H7c.28 0 .45-.1029.45-.3 0-.2195-.45-.45-.45-.45L4.65 6.125C4.4958 6.0584 4.388 6 4.3 6H.125C.0746 6 0 6.0809 0 6.1453c0 .0648.0514.1266.125.2047l3.7 3.55c.0481.0481.1117.0987.15.1z"/>
</svg>
