<svg width="15" height="15" shape-rendering="crispEdges">
	<path fill="#fff0e0" d="m15 7.9297a7.5 7.0703 0 0 1-3.75 6.1231 7.5 7.0703 0 0 1-7.5 0 7.5 7.0703 0 0 1-3.75-6.1231h7.5z"/>
	<circle cx="7.5" cy="7.5" r="5.25" fill="var(--dir-fill,#383448)"/>
	<path fill="var(--dir-maru,#101018)" d="m12.047 4.875a5.25 5.25 0 0 1-0.83432 6.3373 5.25 5.25 0 0 1-6.3373 0.83432 5.25 5.25 0 0 1-2.4461-5.9054l5.0711 1.3588z"/>
	<circle cx="7.5" cy="7.5" r="3.05" fill="var(--dir-fill,#383448)" stroke="var(--dir-maru,#101018)" stroke-width=".8"/>
	<path fill="#fff0e0" d="m10.925 7.8996c0 0.066 0.0514 0.1004 0.1004 0.1004 0.5296-0.0044014 3.9746 0 3.9746 0v-3.875c0-0.0504-0.081-0.125-0.1453-0.125-0.0648 0-0.1266 0.0514-0.2047 0.125l-3.6249 3.6248c-0.048 0.0481-0.099 0.1115-0.1002 0.1498zm-4.175 0.1996c0-0.2195-0.4702-0.4492-0.4702-0.4492l-3.4015-0.75h-2.355c-0.296 0-0.5233 0.2568-0.5233 0.5v0.5936l0.2582 0.4064h6.0216c0.293 0 0.4702-0.1037 0.4702-0.3008z"/>
</svg>