<svg width="15" height="15" shape-rendering="crispEdges" role="img" aria-label="6" class="dirimg r">
	<circle cx="7.5" cy="7.5" r="5.25" fill="var(--dir-fill,#383448)"/>
	<path fill="var(--dir-maru,#101018)" d="m10.125 2.9534a5.25 5.25 0 0 1 2.625 4.5466 5.25 5.25 0 0 1-2.625 4.5466l-2.625-4.5466z"/>
	<circle cx="7.5" cy="7.5" r="3.05" fill="var(--dir-fill,#383448)" stroke="var(--dir-maru,#101018)" stroke-width=".8"/>
	<path fill="#fff0e0" d="M11.025 5c-.0661 0-.1.051-.1.1V7H8c-.28 0-.45.1029-.45.3 0 .2195.45.45.45.45l2.35 1.125c.1542.0666.262.125.35.125h4.175c.0504 0 .125-.0809.125-.1453 0-.0648-.0514-.1266-.125-.2047l-3.7-3.55c-.0481-.0481-.1117-.0987-.15-.1z"/>
</svg>