<svg xmlns="http://www.w3.org/2000/svg" width="16" height="16">
	<path fill="#ff46ce" d="m7.4907 7.4939c-1.4688 2.9462-4.9147 3.1141-6.3631 2.8418-1.2154-2.8737-0.39067-4.8789 0.18136-6.0354 2.411 3.5167 5.5241 3.2275 6.1817 3.1936z"/>
	<path fill="#a446ff" d="m7.4907 7.4939c1.4686 2.9463-0.544 5.6536-1.6675 6.5777-3.0835-0.87378-4.1921-2.7469-4.7714-3.9 4.3493 0.37163 6.0563-2.1599 6.4389-2.6777z"/>
	<path fill="#48ffd8" d="m7.4907 7.4939c3.3002 0.72783 4.2363 3.9359 4.2838 5.3606-2.6297 1.7841-4.8369 1.4535-6.1313 1.1721 3.0126-3.0532 2.028-5.9209 1.8476-6.5327z"/>
	<path fill="#47ff4a" d="m7.4907 7.4939c2.6465-2.0389 5.8266-0.74597 7.0093 0.10645-0.19553 3.0985-1.8391 4.5596-2.8739 5.3618-0.59299-4.179-3.5277-5.2231-4.1354-5.4682z"/>
	<path fill="#fffc48" d="m7.4907 7.4939c0-3.2701 3.0292-4.8658 4.4564-5.2276 2.3857 2.0796 2.5434 4.2319 2.5475 5.5136-3.7518-2.1577-6.4266-0.59223-7.0039-0.28606z"/>
	<path fill="#ffa947" d="m7.4907 7.4939c-2.6465-2.0389-2.0493-5.3217-1.4522-6.6252 3.1705-0.50527 5.0107 0.71762 6.0506 1.5137-4.0855 1.4883-4.4863 4.4846-4.5984 5.1115z"/>
	<path fill="#ff4652" d="m7.4907 7.4939c-3.3002 0.7276-5.5846-1.7703-6.2673-3.034 1.5679-2.7097 3.705-3.337 4.9976-3.6261-1.3428 4.0136 0.83226 6.1845 1.2697 6.6601z"/>
	<path fill-opacity=".4" d="m1.5244 10.438c3.5822 2.7344 10.533 2.2944 13.06-2.6528-0.22635 3.6181-3.5221 6.1292-7.084 6.5628-3.642-0.29684-5.2732-1.8202-5.9756-3.91z"/>
	<ellipse fill="none" stroke="#000" stroke-width=".80443" cx="7.5" cy="7.5" rx="7.0978" ry="6.8478"/>
	<ellipse fill="#fff" transform="rotate(43.494)" cx="6.5007" cy="-.64611" rx="1.7049" ry="2.0576"/>
	<ellipse fill="#fff" transform="rotate(19.954)" cx="4.7178" cy="5.4645" rx=".76239" ry=".836"/>
</svg>
