<svg xmlns="http://www.w3.org/2000/svg" width="15" height="15" shape-rendering="crispEdges">
  <circle cx="7.5" cy="7.5" color="#000" fill="#383448" r="5.25"/>
  <circle cx="7.5" cy="7.5" fill="none" stroke="#101018" stroke-linejoin="bevel" stroke-width=".8" r="3.05"/>
  <path d="M12.659 8.8108c-.0468-.0467-.1074-.0346-.142 0l-1.4494 1.3435L8.9993 8.086c-.198-.198-.391-.2454-.5303-.106-.1552.1552 0 .6364 0 .6364l.8662 2.4572c.062.156.0969.2736.159.3358l2.9523 2.9522c.0356.0357.1456.0312.191-.0143.046-.0459.0533-.1259.0564-.2332V8.9876c0-.068-.0088-.1488-.035-.1768z" fill="#fff0e0"/>
</svg>