<svg xmlns="http://www.w3.org/2000/svg" width="15" height="15" shape-rendering="crispEdges">
  <path d="M6.7813 7.9004v7h1.4843v-.006c3.7596-.1426 6.734-3.2317 6.7344-6.994H6.7812z" color="#000" overflow="visible" opacity=".998" fill="#fff0e0"/>
  <path d="M7 7.9v7a7 7 0 01-7-7z" color="#000" fill="#fff0e0"/>
  <circle cx="7.5" cy="7.5" color="#000" fill="#383448" r="5.25"/>
  <circle cx="7.5" cy="7.5" fill="none" stroke="#101018" stroke-linejoin="bevel" stroke-width=".8" r="3.05"/>
  <path d="M10.925 7.8996c0 .066.0514.1004.1004.1004l1.9748-.0002V8.25l2-.0002L15 4.125c0-.0504-.081-.125-.1453-.125-.0648 0-.1266.0514-.2047.125l-3.6249 3.6248c-.048.0481-.099.1115-.1002.1498zM6.75 8.0992c0-.2195-.4702-.4492-.4702-.4492L2.8783 6.9H.5233C.2273 6.9 0 7.1568 0 7.4v.5936L.2582 8.4h6.0216c.293 0 .4702-.1037.4702-.3008z" fill="#fff0e0"/>
</svg>