<svg xmlns="http://www.w3.org/2000/svg" width="15" height="15" shape-rendering="crispEdges">
  <circle cx="7.5" cy="7.5" color="#000" fill="#383448" r="5.25"/>
  <circle cx="7.5" cy="7.5" fill="none" stroke="#101018" stroke-linejoin="bevel" stroke-width=".8" r="3.05"/>
  <path d="M2.41 6.3245c.0467.0467.1074.0346.142 0L4.0013 4.981l2.0683 2.0682c.198.198.391.2455.5304.1061.1552-.1552 0-.6364 0-.6364l-.8662-2.4572c-.062-.1561-.097-.2736-.1591-.3359L2.6225.7737C2.5868.738 2.4769.7425 2.4314.788c-.0459.0458-.0532.1259-.0564.2332v5.1265c0 .068.0088.1488.035.1768z" fill="#fff0e0"/>
</svg>