<svg xmlns="http://www.w3.org/2000/svg" width="15" height="15" shape-rendering="crispEdges">
  <circle cx="7.5" cy="7.5" color="#000" fill="#383448" r="5.25"/>
  <circle cx="7.5" cy="7.5" fill="none" stroke="#101018" stroke-linejoin="bevel" stroke-width=".8" r="3.05"/>
  <path d="M8.6608 2.435c-.0468.0467-.0347.1074 0 .142l1.3434 1.4493L7.936 6.0946c-.198.198-.2454.391-.106.5304.1552.1552.6363 0 .6363 0l2.4571-.8662c.1561-.062.2737-.097.3359-.1591l2.952-2.9522c.0357-.0356.0312-.1456-.0143-.1911-.0458-.0459-.1259-.0532-.2331-.0564H8.8376c-.068 0-.1488.0088-.1768.035z" fill="#fff0e0"/>
</svg>